<?xml version="1.0" encoding="utf-8"?>
<!DOCTYPE svg
  PUBLIC '-//W3C//DTD SVG 1.0//EN'
  'http://www.w3.org/TR/2001/REC-SVG-20010904/DTD/svg10.dtd'>
<svg width="940" height="418" preserveAspectRatio="xMinYMin meet" viewBox="0 0 940 418" xmlns="http://www.w3.org/2000/svg" version="1.0" fill-rule="evenodd" xmlns:xlink="http://www.w3.org/1999/xlink">
	<title>...</title>
	<desc>...</desc>
	<clipPath id="clip">
		<rect x="0" y="0" width="940" height="418"/>
	</clipPath>
	<g id="group" transform="scale(1,-1) translate(0,-418)" style="clip-path: url(#clip)">
		<g transform="">
			<text x="16" y="391" style="font-family: BodyBold; font-size: 16px;fill: rgb(32%,39%,47%); stroke:none;" transform="translate(0,782) scale(1,-1)">DIE QUELLE</text>
			<text x="263" y="391" style="font-family: BodyBold; font-size: 16px;fill: rgb(3%,49%,50%); stroke:none;" transform="translate(0,782) scale(1,-1)">EINMAL GEMEINSAM VERARBEITEN</text>
			<text x="691" y="391" style="font-family: BodyBold; font-size: 16px;fill: rgb(32%,39%,47%); stroke:none;" transform="translate(0,782) scale(1,-1)">PERSÖNLICH ORGANISIEREN</text>
			<rect x="16" y="274" width="184" height="62" rx="9" ry="9" style="stroke: none; stroke-linecap: butt; stroke-width: 1; fill: rgb(94%,96%,96%); fill-rule: evenodd;"/>
			<polygon points="33 289, 33 322, 53 322, 63 312, 63 289" style="stroke: rgb(32%,39%,47%); stroke-linecap: butt; stroke-width: 1.4; fill: rgb(100%,100%,100%); fill-rule: evenodd;"/>
			<path d="M 53,322 L 53,312 Z" style="stroke: rgb(32%,39%,47%); stroke-linecap: butt; stroke-width: 1.4;"/>
			<path d="M 53,312 L 63,312 Z" style="stroke: rgb(32%,39%,47%); stroke-linecap: butt; stroke-width: 1.4;"/>
			<path d="M 39,306 L 56,306 Z" style="stroke: rgb(32%,39%,47%); stroke-linecap: butt; stroke-width: 1;"/>
			<path d="M 39,299 L 56,299 Z" style="stroke: rgb(32%,39%,47%); stroke-linecap: butt; stroke-width: 1;"/>
			<text x="76" y="299" style="font-family: Body; font-size: 19px;fill: rgb(8%,17%,25%); stroke:none;" transform="translate(0,598) scale(1,-1)">PDF-Aufgabe</text>
			<rect x="16" y="198" width="184" height="62" rx="9" ry="9" style="stroke: none; stroke-linecap: butt; stroke-width: 1; fill: rgb(94%,96%,96%); fill-rule: evenodd;"/>
			<polygon points="33 213, 33 246, 53 246, 63 236, 63 213" style="stroke: rgb(32%,39%,47%); stroke-linecap: butt; stroke-width: 1.4; fill: rgb(100%,100%,100%); fill-rule: evenodd;"/>
			<path d="M 53,246 L 53,236 Z" style="stroke: rgb(32%,39%,47%); stroke-linecap: butt; stroke-width: 1.4;"/>
			<path d="M 53,236 L 63,236 Z" style="stroke: rgb(32%,39%,47%); stroke-linecap: butt; stroke-width: 1.4;"/>
			<path d="M 39,230 L 56,230 Z" style="stroke: rgb(32%,39%,47%); stroke-linecap: butt; stroke-width: 1;"/>
			<path d="M 39,223 L 56,223 Z" style="stroke: rgb(32%,39%,47%); stroke-linecap: butt; stroke-width: 1;"/>
			<text x="76" y="223" style="font-family: Body; font-size: 19px;fill: rgb(8%,17%,25%); stroke:none;" transform="translate(0,446) scale(1,-1)">Link</text>
			<rect x="16" y="122" width="184" height="62" rx="9" ry="9" style="stroke: none; stroke-linecap: butt; stroke-width: 1; fill: rgb(94%,96%,96%); fill-rule: evenodd;"/>
			<polygon points="33 137, 33 170, 53 170, 63 160, 63 137" style="stroke: rgb(32%,39%,47%); stroke-linecap: butt; stroke-width: 1.4; fill: rgb(100%,100%,100%); fill-rule: evenodd;"/>
			<path d="M 53,170 L 53,160 Z" style="stroke: rgb(32%,39%,47%); stroke-linecap: butt; stroke-width: 1.4;"/>
			<path d="M 53,160 L 63,160 Z" style="stroke: rgb(32%,39%,47%); stroke-linecap: butt; stroke-width: 1.4;"/>
			<path d="M 39,154 L 56,154 Z" style="stroke: rgb(32%,39%,47%); stroke-linecap: butt; stroke-width: 1;"/>
			<path d="M 39,147 L 56,147 Z" style="stroke: rgb(32%,39%,47%); stroke-linecap: butt; stroke-width: 1;"/>
			<text x="76" y="147" style="font-family: Body; font-size: 19px;fill: rgb(8%,17%,25%); stroke:none;" transform="translate(0,294) scale(1,-1)">Aktivität</text>
			<text x="16" y="94" style="font-family: Body; font-size: 16px;fill: rgb(32%,39%,47%); stroke:none;" transform="translate(0,188) scale(1,-1)">Kontrollierter Mock-Kurs</text>
			<rect x="248" y="100" width="356" height="262" rx="15" ry="15" style="stroke: none; stroke-linecap: butt; stroke-width: 1; fill: rgb(8%,17%,25%); fill-rule: evenodd;"/>
			<text x="270" y="329" style="font-family: BodyBold; font-size: 23px;fill: rgb(100%,100%,100%); stroke:none;" transform="translate(0,658) scale(1,-1)">Gemeinsamer Kurszustand</text>
			<circle cx="280" cy="282" r="12" style="stroke: none; stroke-linecap: butt; stroke-width: 1; fill: rgb(3%,49%,50%); fill-rule: evenodd;"/>
			<text x="276.10693359375" y="277" style="font-family: BodyBold; font-size: 14px;fill: rgb(100%,100%,100%); stroke:none;" transform="translate(0,554) scale(1,-1)">1</text>
			<text x="304" y="279" style="font-family: BodyBold; font-size: 20px;fill: rgb(100%,100%,100%); stroke:none;" transform="translate(0,558) scale(1,-1)">Inhalte vereinheitlichen</text>
			<text x="304" y="255" style="font-family: Body; font-size: 16px;fill: rgb(74%,82%,86%); stroke:none;" transform="translate(0,510) scale(1,-1)">Adapter für verschiedene Formate</text>
			<circle cx="280" cy="212" r="12" style="stroke: none; stroke-linecap: butt; stroke-width: 1; fill: rgb(3%,49%,50%); fill-rule: evenodd;"/>
			<text x="276.10693359375" y="207" style="font-family: BodyBold; font-size: 14px;fill: rgb(100%,100%,100%); stroke:none;" transform="translate(0,414) scale(1,-1)">2</text>
			<text x="304" y="209" style="font-family: BodyBold; font-size: 20px;fill: rgb(100%,100%,100%); stroke:none;" transform="translate(0,418) scale(1,-1)">Änderungen erkennen</text>
			<text x="304" y="185" style="font-family: Body; font-size: 16px;fill: rgb(74%,82%,86%); stroke:none;" transform="translate(0,370) scale(1,-1)">Stabile IDs statt Dateinamen</text>
			<circle cx="280" cy="142" r="12" style="stroke: none; stroke-linecap: butt; stroke-width: 1; fill: rgb(3%,49%,50%); fill-rule: evenodd;"/>
			<text x="276.10693359375" y="137" style="font-family: BodyBold; font-size: 14px;fill: rgb(100%,100%,100%); stroke:none;" transform="translate(0,274) scale(1,-1)">3</text>
			<text x="304" y="139" style="font-family: BodyBold; font-size: 20px;fill: rgb(100%,100%,100%); stroke:none;" transform="translate(0,278) scale(1,-1)">Gültigen Stand übernehmen</text>
			<text x="304" y="115" style="font-family: Body; font-size: 16px;fill: rgb(74%,82%,86%); stroke:none;" transform="translate(0,230) scale(1,-1)">Bei Fehlern bleibt der alte Stand</text>
			<path d="M 222,153 L 222,305 Z" style="stroke: rgb(32%,39%,47%); stroke-linecap: butt; stroke-width: 2.4;"/>
			<path d="M 200,153 L 222,153 Z" style="stroke: rgb(32%,39%,47%); stroke-linecap: butt; stroke-width: 2.4;"/>
			<path d="M 200,229 L 222,229 Z" style="stroke: rgb(32%,39%,47%); stroke-linecap: butt; stroke-width: 2.4;"/>
			<path d="M 200,305 L 222,305 Z" style="stroke: rgb(32%,39%,47%); stroke-linecap: butt; stroke-width: 2.4;"/>
			<path d="M 222,229 L 248,229 Z" style="stroke: rgb(32%,39%,47%); stroke-linecap: butt; stroke-width: 2.4;"/>
			<polygon points="248 229, 238 234, 238 224" style="stroke: none; stroke-linecap: butt; stroke-width: 1; fill: rgb(32%,39%,47%); fill-rule: evenodd;"/>
			<path d="M 604,232 L 640,232 Z" style="stroke: rgb(3%,49%,50%); stroke-linecap: butt; stroke-width: 2.4;"/>
			<path d="M 640,144 L 640,316 Z" style="stroke: rgb(3%,49%,50%); stroke-linecap: butt; stroke-width: 2.4;"/>
			<path d="M 640,316 L 683,316 Z" style="stroke: rgb(3%,49%,50%); stroke-linecap: butt; stroke-width: 2.4;"/>
			<polygon points="683 316, 673 321, 673 311" style="stroke: none; stroke-linecap: butt; stroke-width: 1; fill: rgb(3%,49%,50%); fill-rule: evenodd;"/>
			<rect x="683" y="283" width="241" height="66" rx="10" ry="10" style="stroke: none; stroke-linecap: butt; stroke-width: 1; fill: rgb(91%,96%,95%); fill-rule: evenodd;"/>
			<circle cx="711" cy="325" r="8" style="stroke: none; stroke-linecap: butt; stroke-width: 1; fill: rgb(3%,49%,50%); fill-rule: evenodd;"/>
			<rect x="699" y="302" width="24" height="13" rx="6" ry="6" style="stroke: none; stroke-linecap: butt; stroke-width: 1; fill: rgb(3%,49%,50%); fill-rule: evenodd;"/>
			<text x="741" y="322" style="font-family: BodyBold; font-size: 20px;fill: rgb(8%,17%,25%); stroke:none;" transform="translate(0,644) scale(1,-1)">Person A</text>
			<text x="741" y="299" style="font-family: Body; font-size: 18px;fill: rgb(32%,39%,47%); stroke:none;" transform="translate(0,598) scale(1,-1)">Eigene Aufgabe</text>
			<path d="M 640,230 L 683,230 Z" style="stroke: rgb(3%,49%,50%); stroke-linecap: butt; stroke-width: 2.4;"/>
			<polygon points="683 230, 673 235, 673 225" style="stroke: none; stroke-linecap: butt; stroke-width: 1; fill: rgb(3%,49%,50%); fill-rule: evenodd;"/>
			<rect x="683" y="197" width="241" height="66" rx="10" ry="10" style="stroke: none; stroke-linecap: butt; stroke-width: 1; fill: rgb(91%,96%,95%); fill-rule: evenodd;"/>
			<circle cx="711" cy="239" r="8" style="stroke: none; stroke-linecap: butt; stroke-width: 1; fill: rgb(3%,49%,50%); fill-rule: evenodd;"/>
			<rect x="699" y="216" width="24" height="13" rx="6" ry="6" style="stroke: none; stroke-linecap: butt; stroke-width: 1; fill: rgb(3%,49%,50%); fill-rule: evenodd;"/>
			<text x="741" y="236" style="font-family: BodyBold; font-size: 20px;fill: rgb(8%,17%,25%); stroke:none;" transform="translate(0,472) scale(1,-1)">Person B</text>
			<text x="741" y="213" style="font-family: Body; font-size: 18px;fill: rgb(32%,39%,47%); stroke:none;" transform="translate(0,426) scale(1,-1)">Eigene Aufgabe</text>
			<path d="M 640,144 L 683,144 Z" style="stroke: rgb(3%,49%,50%); stroke-linecap: butt; stroke-width: 2.4;"/>
			<polygon points="683 144, 673 149, 673 139" style="stroke: none; stroke-linecap: butt; stroke-width: 1; fill: rgb(3%,49%,50%); fill-rule: evenodd;"/>
			<rect x="683" y="111" width="241" height="66" rx="10" ry="10" style="stroke: none; stroke-linecap: butt; stroke-width: 1; fill: rgb(91%,96%,95%); fill-rule: evenodd;"/>
			<circle cx="711" cy="153" r="8" style="stroke: none; stroke-linecap: butt; stroke-width: 1; fill: rgb(3%,49%,50%); fill-rule: evenodd;"/>
			<rect x="699" y="130" width="24" height="13" rx="6" ry="6" style="stroke: none; stroke-linecap: butt; stroke-width: 1; fill: rgb(3%,49%,50%); fill-rule: evenodd;"/>
			<text x="741" y="150" style="font-family: BodyBold; font-size: 20px;fill: rgb(8%,17%,25%); stroke:none;" transform="translate(0,300) scale(1,-1)">Person C</text>
			<text x="741" y="127" style="font-family: Body; font-size: 18px;fill: rgb(32%,39%,47%); stroke:none;" transform="translate(0,254) scale(1,-1)">Eigene Aufgabe</text>
			<path d="M 16,72 L 924,72 Z" style="stroke: rgb(83%,87%,89%); stroke-linecap: butt; stroke-width: 1;"/>
			<text x="16" y="23" style="font-family: BodyBold; font-size: 35px;fill: rgb(3%,49%,50%); stroke:none;" transform="translate(0,46) scale(1,-1)">1</text>
			<text x="58" y="30" style="font-family: Body; font-size: 18px;fill: rgb(32%,39%,47%); stroke:none;" transform="translate(0,60) scale(1,-1)">gemeinsamer Abruf</text>
			<text x="333" y="23" style="font-family: BodyBold; font-size: 35px;fill: rgb(3%,49%,50%); stroke:none;" transform="translate(0,46) scale(1,-1)">3</text>
			<text x="375" y="30" style="font-family: Body; font-size: 18px;fill: rgb(32%,39%,47%); stroke:none;" transform="translate(0,60) scale(1,-1)">persönliche Aufgaben</text>
			<text x="650" y="23" style="font-family: BodyBold; font-size: 35px;fill: rgb(3%,49%,50%); stroke:none;" transform="translate(0,46) scale(1,-1)">0</text>
			<text x="692" y="30" style="font-family: Body; font-size: 18px;fill: rgb(32%,39%,47%); stroke:none;" transform="translate(0,60) scale(1,-1)">Duplikate bei Wiederholung</text>
		</g>
	</g>
</svg>
