<?xml version="1.0" encoding="utf-8"?>
<!DOCTYPE svg
  PUBLIC '-//W3C//DTD SVG 1.0//EN'
  'http://www.w3.org/TR/2001/REC-SVG-20010904/DTD/svg10.dtd'>
<svg width="940" height="348" preserveAspectRatio="xMinYMin meet" viewBox="0 0 940 348" xmlns="http://www.w3.org/2000/svg" version="1.0" fill-rule="evenodd" xmlns:xlink="http://www.w3.org/1999/xlink">
	<title>...</title>
	<desc>...</desc>
	<clipPath id="clip">
		<rect x="0" y="0" width="940" height="348"/>
	</clipPath>
	<g id="group" transform="scale(1,-1) translate(0,-348)" style="clip-path: url(#clip)">
		<g transform="">
			<text x="16" y="328" style="font-family: BodyBold; font-size: 18px;fill: rgb(32%,39%,47%); stroke:none;" transform="translate(0,656) scale(1,-1)">PERSÖNLICHES BEWERTUNGSPROFIL</text>
			<circle cx="563" cy="333" r="6" style="stroke: none; stroke-linecap: butt; stroke-width: 1; fill: rgb(38%,34%,64%); fill-rule: evenodd;"/>
			<text x="578" y="327" style="font-family: BodyBold; font-size: 18px;fill: rgb(38%,34%,64%); stroke:none;" transform="translate(0,654) scale(1,-1)">Matt</text>
			<polygon points="724 340, 731 333, 724 326, 717 333" style="stroke: none; stroke-linecap: butt; stroke-width: 1; fill: rgb(3%,49%,50%); fill-rule: evenodd;"/>
			<text x="740" y="327" style="font-family: BodyBold; font-size: 18px;fill: rgb(3%,49%,50%); stroke:none;" transform="translate(0,654) scale(1,-1)">Superpowers</text>
			<rect x="0" y="251" width="940" height="32" style="stroke: none; stroke-linecap: butt; stroke-width: 1; fill: rgb(94%,96%,96%); fill-rule: evenodd;"/>
			<rect x="0" y="187" width="940" height="32" style="stroke: none; stroke-linecap: butt; stroke-width: 1; fill: rgb(94%,96%,96%); fill-rule: evenodd;"/>
			<rect x="0" y="123" width="940" height="32" style="stroke: none; stroke-linecap: butt; stroke-width: 1; fill: rgb(94%,96%,96%); fill-rule: evenodd;"/>
			<rect x="0" y="59" width="940" height="32" style="stroke: none; stroke-linecap: butt; stroke-width: 1; fill: rgb(94%,96%,96%); fill-rule: evenodd;"/>
			<path d="M 300,57 L 300,290 Z" style="stroke: rgb(83%,87%,89%); stroke-linecap: butt; stroke-width: 1;"/>
			<text x="295.272705078125" y="34" style="font-family: Body; font-size: 17px;fill: rgb(32%,39%,47%); stroke:none;" transform="translate(0,68) scale(1,-1)">1</text>
			<path d="M 421.25,57 L 421.25,290 Z" style="stroke: rgb(83%,87%,89%); stroke-linecap: butt; stroke-width: 1;"/>
			<text x="416.522705078125" y="34" style="font-family: Body; font-size: 17px;fill: rgb(32%,39%,47%); stroke:none;" transform="translate(0,68) scale(1,-1)">2</text>
			<path d="M 542.5,57 L 542.5,290 Z" style="stroke: rgb(83%,87%,89%); stroke-linecap: butt; stroke-width: 1;"/>
			<text x="537.772705078125" y="34" style="font-family: Body; font-size: 17px;fill: rgb(32%,39%,47%); stroke:none;" transform="translate(0,68) scale(1,-1)">3</text>
			<path d="M 663.75,57 L 663.75,290 Z" style="stroke: rgb(83%,87%,89%); stroke-linecap: butt; stroke-width: 1;"/>
			<text x="659.022705078125" y="34" style="font-family: Body; font-size: 17px;fill: rgb(32%,39%,47%); stroke:none;" transform="translate(0,68) scale(1,-1)">4</text>
			<path d="M 785,57 L 785,290 Z" style="stroke: rgb(83%,87%,89%); stroke-linecap: butt; stroke-width: 1;"/>
			<text x="780.272705078125" y="34" style="font-family: Body; font-size: 17px;fill: rgb(32%,39%,47%); stroke:none;" transform="translate(0,68) scale(1,-1)">5</text>
			<text x="16" y="262" style="font-family: Body; font-size: 17px;fill: rgb(8%,17%,25%); stroke:none;" transform="translate(0,524) scale(1,-1)">Verständlichkeit</text>
			<path d="M 663.75,272 L 785,262 Z" style="stroke: rgb(32%,39%,47%); stroke-linecap: butt; stroke-width: 1.5;"/>
			<circle cx="663.75" cy="272" r="6" style="stroke: rgb(100%,100%,100%); stroke-linecap: butt; stroke-width: 1; fill: rgb(38%,34%,64%); fill-rule: evenodd;"/>
			<polygon points="785 269, 792 262, 785 255, 778 262" style="stroke: rgb(100%,100%,100%); stroke-linecap: butt; stroke-width: 1; fill: rgb(3%,49%,50%); fill-rule: evenodd;"/>
			<text x="818" y="262" style="font-family: Body; font-size: 16px;fill: rgb(3%,49%,50%); stroke:none;" transform="translate(0,524) scale(1,-1)">Super +1</text>
			<text x="16" y="230" style="font-family: Body; font-size: 17px;fill: rgb(8%,17%,25%); stroke:none;" transform="translate(0,460) scale(1,-1)">Kontrolle</text>
			<path d="M 663.75,240 L 663.75,230 Z" style="stroke: rgb(32%,39%,47%); stroke-linecap: butt; stroke-width: 1.5;"/>
			<circle cx="663.75" cy="240" r="6" style="stroke: rgb(100%,100%,100%); stroke-linecap: butt; stroke-width: 1; fill: rgb(38%,34%,64%); fill-rule: evenodd;"/>
			<polygon points="663.75 237, 670.75 230, 663.75 223, 656.75 230" style="stroke: rgb(100%,100%,100%); stroke-linecap: butt; stroke-width: 1; fill: rgb(3%,49%,50%); fill-rule: evenodd;"/>
			<text x="818" y="230" style="font-family: Body; font-size: 16px;fill: rgb(32%,39%,47%); stroke:none;" transform="translate(0,460) scale(1,-1)">gleich</text>
			<text x="16" y="198" style="font-family: Body; font-size: 17px;fill: rgb(8%,17%,25%); stroke:none;" transform="translate(0,396) scale(1,-1)">Lerngewinn</text>
			<path d="M 785,208 L 663.75,198 Z" style="stroke: rgb(32%,39%,47%); stroke-linecap: butt; stroke-width: 1.5;"/>
			<circle cx="785.0" cy="208" r="6" style="stroke: rgb(100%,100%,100%); stroke-linecap: butt; stroke-width: 1; fill: rgb(38%,34%,64%); fill-rule: evenodd;"/>
			<polygon points="663.75 205, 670.75 198, 663.75 191, 656.75 198" style="stroke: rgb(100%,100%,100%); stroke-linecap: butt; stroke-width: 1; fill: rgb(3%,49%,50%); fill-rule: evenodd;"/>
			<text x="818" y="198" style="font-family: Body; font-size: 16px;fill: rgb(38%,34%,64%); stroke:none;" transform="translate(0,396) scale(1,-1)">Matt +1</text>
			<text x="16" y="166" style="font-family: Body; font-size: 17px;fill: rgb(8%,17%,25%); stroke:none;" transform="translate(0,332) scale(1,-1)">Angemessener Aufwand</text>
			<path d="M 663.75,176 L 542.5,166 Z" style="stroke: rgb(32%,39%,47%); stroke-linecap: butt; stroke-width: 1.5;"/>
			<circle cx="663.75" cy="176" r="6" style="stroke: rgb(100%,100%,100%); stroke-linecap: butt; stroke-width: 1; fill: rgb(38%,34%,64%); fill-rule: evenodd;"/>
			<polygon points="542.5 173, 549.5 166, 542.5 159, 535.5 166" style="stroke: rgb(100%,100%,100%); stroke-linecap: butt; stroke-width: 1; fill: rgb(3%,49%,50%); fill-rule: evenodd;"/>
			<text x="818" y="166" style="font-family: Body; font-size: 16px;fill: rgb(38%,34%,64%); stroke:none;" transform="translate(0,332) scale(1,-1)">Matt +1</text>
			<text x="16" y="134" style="font-family: Body; font-size: 17px;fill: rgb(8%,17%,25%); stroke:none;" transform="translate(0,268) scale(1,-1)">Vertrauen</text>
			<path d="M 785,144 L 663.75,134 Z" style="stroke: rgb(32%,39%,47%); stroke-linecap: butt; stroke-width: 1.5;"/>
			<circle cx="785.0" cy="144" r="6" style="stroke: rgb(100%,100%,100%); stroke-linecap: butt; stroke-width: 1; fill: rgb(38%,34%,64%); fill-rule: evenodd;"/>
			<polygon points="663.75 141, 670.75 134, 663.75 127, 656.75 134" style="stroke: rgb(100%,100%,100%); stroke-linecap: butt; stroke-width: 1; fill: rgb(3%,49%,50%); fill-rule: evenodd;"/>
			<text x="818" y="134" style="font-family: Body; font-size: 16px;fill: rgb(38%,34%,64%); stroke:none;" transform="translate(0,268) scale(1,-1)">Matt +1</text>
			<text x="16" y="102" style="font-family: Body; font-size: 17px;fill: rgb(8%,17%,25%); stroke:none;" transform="translate(0,204) scale(1,-1)">Wiederaufnahme</text>
			<path d="M 663.75,112 L 663.75,102 Z" style="stroke: rgb(32%,39%,47%); stroke-linecap: butt; stroke-width: 1.5;"/>
			<circle cx="663.75" cy="112" r="6" style="stroke: rgb(100%,100%,100%); stroke-linecap: butt; stroke-width: 1; fill: rgb(38%,34%,64%); fill-rule: evenodd;"/>
			<polygon points="663.75 109, 670.75 102, 663.75 95, 656.75 102" style="stroke: rgb(100%,100%,100%); stroke-linecap: butt; stroke-width: 1; fill: rgb(3%,49%,50%); fill-rule: evenodd;"/>
			<text x="818" y="102" style="font-family: Body; font-size: 16px;fill: rgb(32%,39%,47%); stroke:none;" transform="translate(0,204) scale(1,-1)">gleich</text>
			<text x="16" y="70" style="font-family: Body; font-size: 17px;fill: rgb(8%,17%,25%); stroke:none;" transform="translate(0,140) scale(1,-1)">Anpassbarkeit</text>
			<path d="M 663.75,80 L 663.75,70 Z" style="stroke: rgb(32%,39%,47%); stroke-linecap: butt; stroke-width: 1.5;"/>
			<circle cx="663.75" cy="80" r="6" style="stroke: rgb(100%,100%,100%); stroke-linecap: butt; stroke-width: 1; fill: rgb(38%,34%,64%); fill-rule: evenodd;"/>
			<polygon points="663.75 77, 670.75 70, 663.75 63, 656.75 70" style="stroke: rgb(100%,100%,100%); stroke-linecap: butt; stroke-width: 1; fill: rgb(3%,49%,50%); fill-rule: evenodd;"/>
			<text x="818" y="70" style="font-family: Body; font-size: 16px;fill: rgb(32%,39%,47%); stroke:none;" transform="translate(0,140) scale(1,-1)">gleich</text>
			<text x="16" y="7" style="font-family: Body; font-size: 15px;fill: rgb(32%,39%,47%); stroke:none;" transform="translate(0,14) scale(1,-1)">1 sehr schlecht  /  3 gemischt  /  5 sehr gut</text>
			<text x="716.95556640625" y="7" style="font-family: Body; font-size: 15px;fill: rgb(32%,39%,47%); stroke:none;" transform="translate(0,14) scale(1,-1)">Höher = günstiger eingeschätzt</text>
		</g>
	</g>
</svg>
